<svg xmlns="http://www.w3.org/2000/svg" viewBox="0 0 256 99.5"><defs><style>.cls-1,.cls-3{fill:none;stroke:#fff;stroke-width:2px;}.cls-1{stroke-linecap:round;stroke-linejoin:round;}.cls-2{fill:#fff;}.cls-3{stroke-miterlimit:10;}</style></defs><title>anywhere</title><g id="Layer_2" data-name="Layer 2"><g id="Layer_2-2" data-name="Layer 2"><rect class="cls-1" x="142" y="5.5" width="71" height="93" rx="9.02" ry="9.02"/><rect class="cls-2" x="143.5" y="24" width="68" height="51" transform="translate(227 -128) rotate(90)"/><circle class="cls-2" cx="177.5" cy="90" r="3"/><rect class="cls-1" x="224" y="41.5" width="31" height="57" rx="7.3" ry="7.3"/><rect class="cls-2" x="219" y="58.5" width="41" height="19" rx="1.3" ry="1.3" transform="translate(307.5 -171.5) rotate(90)"/><circle class="cls-2" cx="239.5" cy="93" r="2"/><rect class="cls-1" x="1" y="1" width="129" height="87" rx="9.08" ry="9.08"/><rect class="cls-2" x="34.5" y="-12.5" width="62" height="109" transform="translate(107.5 -23.5) rotate(90)"/><path class="cls-3" d="M96.5,98.5h-62a3,3,0,0,1-3-3h0c0-1.65,1.35-7.5,3-7.5h62c1.65,0,3,5.85,3,7.5h0A3,3,0,0,1,96.5,98.5Z"/></g></g></svg>