<svg xmlns="http://www.w3.org/2000/svg" viewBox="0 0 330 33.96"><defs><style>.cls-1{fill:#fff;}</style></defs><title>logo</title><g id="Layer_2" data-name="Layer 2"><g id="Layer_7" data-name="Layer 7"><path class="cls-1" d="M30.54,5.53,4.16.91A4.17,4.17,0,0,0,0,5.08V27.92a4.16,4.16,0,0,0,4.16,4.16l26.38-4a4.17,4.17,0,0,0,4.17-4.16V9.69C34.71,7.39,32,5.79,30.54,5.53ZM32.6,22.14a3.2,3.2,0,0,1-3.2,3.2L10.79,27.92A3.19,3.19,0,0,1,7.6,24.73V8.27a3.19,3.19,0,0,1,3.19-3.19l18.61,3c1.12.2,3.2,1.43,3.2,3.19Z"/><path class="cls-1" d="M22.37,20.54l3.36-1.93a2.44,2.44,0,0,0,0-4.22l-3.36-1.94a2.43,2.43,0,0,0-3.65,2.11v3.88A2.43,2.43,0,0,0,22.37,20.54Z"/><path class="cls-1" d="M53.05,26.37a18.18,18.18,0,0,1-5.22-.77,12.26,12.26,0,0,1-4.35-2.23l2.26-3.49a19.07,19.07,0,0,0,3.69,1.82,10.22,10.22,0,0,0,3.46.64,3.82,3.82,0,0,0,1.9-.39,1.24,1.24,0,0,0,.67-1.14,1.32,1.32,0,0,0-.85-1.19,13.7,13.7,0,0,0-3-.95c-1.4-.36-2.58-.7-3.54-1a9.93,9.93,0,0,1-2.35-1.11,3.59,3.59,0,0,1-1.31-1.39A4.1,4.1,0,0,1,44,13.29a5.4,5.4,0,0,1,.63-2.6,6,6,0,0,1,1.74-2A8.71,8.71,0,0,1,49,7.41,11.2,11.2,0,0,1,52.34,7a16.2,16.2,0,0,1,4.37.57,11.32,11.32,0,0,1,3.93,2.07L58.19,13A17.83,17.83,0,0,0,55,11.4a8,8,0,0,0-2.69-.5,3.67,3.67,0,0,0-1.74.38,1.32,1.32,0,0,0,.06,2.37,14,14,0,0,0,2.86.85c1.48.36,2.72.71,3.74,1.07a11,11,0,0,1,2.47,1.19,4.2,4.2,0,0,1,1.38,1.52,4.44,4.44,0,0,1,.44,2,5.18,5.18,0,0,1-2.29,4.42A10.51,10.51,0,0,1,53.05,26.37Z"/><path class="cls-1" d="M77,25a24.61,24.61,0,0,1-3,.93,13.45,13.45,0,0,1-3.38.43,8.85,8.85,0,0,1-2.23-.27,5.27,5.27,0,0,1-1.84-.85,4.16,4.16,0,0,1-1.25-1.55,5.49,5.49,0,0,1-.45-2.32V11.62H62.26V7.3h2.65V1.35h6.32V7.3h4.23v4.32H71.23v7.8a1.6,1.6,0,0,0,.52,1.34,2,2,0,0,0,1.3.41A5.39,5.39,0,0,0,74.51,21a10.34,10.34,0,0,0,1.31-.46Z"/><path class="cls-1" d="M91.67,12.19a13.42,13.42,0,0,0-4.15.67,5,5,0,0,0-2.69,1.93V26H78.51V7.3h5.81v3.78a8.18,8.18,0,0,1,2.75-3A6.77,6.77,0,0,1,90.64,7h.64a1.72,1.72,0,0,1,.39,0Z"/><path class="cls-1" d="M102.23,26.37a13.49,13.49,0,0,1-4.69-.77A10.56,10.56,0,0,1,94,23.52a9,9,0,0,1-2.94-6.67A9.87,9.87,0,0,1,91.83,13,9.12,9.12,0,0,1,94,9.87a10.48,10.48,0,0,1,3.5-2.14A13.41,13.41,0,0,1,102.23,7a13.2,13.2,0,0,1,4.7.78,10.61,10.61,0,0,1,3.48,2.12,8.81,8.81,0,0,1,2.15,3.08,9.39,9.39,0,0,1,.73,3.67c0,.34,0,.66,0,1a5.75,5.75,0,0,1-.11.84H97.8a3.69,3.69,0,0,0,1.52,2.87,5.2,5.2,0,0,0,3.1,1,6.1,6.1,0,0,0,2.67-.61A3.24,3.24,0,0,0,106.81,20l5.38,1.35a9.21,9.21,0,0,1-3.8,3.6A12.85,12.85,0,0,1,102.23,26.37Zm4.38-11.48a4.1,4.1,0,0,0-1.42-2.81,5,5,0,0,0-6.11,0,4.18,4.18,0,0,0-1.4,2.79Z"/><path class="cls-1" d="M121.08,26.37a8.79,8.79,0,0,1-2.86-.45,6.76,6.76,0,0,1-2.28-1.24,6.21,6.21,0,0,1-1.5-1.89,5.16,5.16,0,0,1-.55-2.37,4.94,4.94,0,0,1,.65-2.53,5.91,5.91,0,0,1,1.84-2,9.39,9.39,0,0,1,2.8-1.29,13.42,13.42,0,0,1,3.6-.46,16.1,16.1,0,0,1,2.53.2,8.62,8.62,0,0,1,2.14.59v-.86c0-2.16-1.39-3.24-4.15-3.24a10.29,10.29,0,0,0-3.25.51,17.19,17.19,0,0,0-3.24,1.55L115,9.37a17.71,17.71,0,0,1,4.27-1.82,18,18,0,0,1,4.71-.6c3.13,0,5.56.66,7.27,2a7,7,0,0,1,2.57,5.85V19.6a1.8,1.8,0,0,0,.3,1.19,1.5,1.5,0,0,0,1,.41V26a10.38,10.38,0,0,1-1.5.23c-.45,0-.85.06-1.22.06a4.73,4.73,0,0,1-2.69-.63,2.7,2.7,0,0,1-1.15-1.76l-.12-.86a9.28,9.28,0,0,1-3.3,2.46A9.85,9.85,0,0,1,121.08,26.37Zm1.86-4.1a6.49,6.49,0,0,0,2-.32,4.78,4.78,0,0,0,1.6-.86,1.74,1.74,0,0,0,.91-1.35V18a11.84,11.84,0,0,0-1.8-.45,12,12,0,0,0-1.8-.16,5.24,5.24,0,0,0-2.87.72,2.11,2.11,0,0,0-1.12,1.85,2,2,0,0,0,.87,1.69A3.54,3.54,0,0,0,122.94,22.27Z"/><path class="cls-1" d="M170.18,26h-6.33V15.5a4,4,0,0,0-.75-2.69,2.46,2.46,0,0,0-1.93-.84,3.74,3.74,0,0,0-1.29.25,4.39,4.39,0,0,0-1.2.7,5.32,5.32,0,0,0-1,1.05,5,5,0,0,0-.73,1.32V26h-6.33V15.5a4,4,0,0,0-.75-2.69,2.49,2.49,0,0,0-1.94-.84,4.13,4.13,0,0,0-2.47.91,5.25,5.25,0,0,0-1.76,2.41V26h-6.32V7.3h5.69v3.14a7.24,7.24,0,0,1,3.1-2.6A11,11,0,0,1,150.73,7a8.05,8.05,0,0,1,2.27.28,5.44,5.44,0,0,1,1.68.79,4.22,4.22,0,0,1,1.15,1.16,4.64,4.64,0,0,1,.63,1.4,7.91,7.91,0,0,1,3.12-2.69A10,10,0,0,1,164,7a6.59,6.59,0,0,1,3.18.66,5,5,0,0,1,1.88,1.71,6,6,0,0,1,.89,2.3,13.61,13.61,0,0,1,.22,2.42Z"/><path class="cls-1" d="M173.34,5.17V0h6.33V5.17Zm0,20.84V7.3h6.33V26Z"/><path class="cls-1" d="M203,26H196.7V15.5a3.88,3.88,0,0,0-.77-2.69,2.62,2.62,0,0,0-2-.84,4,4,0,0,0-1.35.25,5.67,5.67,0,0,0-1.3.7A5.34,5.34,0,0,0,190.12,14a4.61,4.61,0,0,0-.77,1.32V26H183V7.3h5.69v3.14A7.24,7.24,0,0,1,192,7.86,11.94,11.94,0,0,1,196.78,7a6.8,6.8,0,0,1,3.24.66,5,5,0,0,1,1.9,1.71,6,6,0,0,1,.89,2.3A13.61,13.61,0,0,1,203,14Z"/><path class="cls-1" d="M214.29,26.08a9.17,9.17,0,0,1-3.75-.75,8.72,8.72,0,0,1-2.91-2,9.12,9.12,0,0,1-1.87-3,9.89,9.89,0,0,1-.68-3.67,10,10,0,0,1,.72-3.83,9,9,0,0,1,5-5.11A10,10,0,0,1,214.73,7a8.83,8.83,0,0,1,4.13.91,7.38,7.38,0,0,1,2.83,2.51V7.3h5.49V24.73a8.15,8.15,0,0,1-.89,3.85,8.47,8.47,0,0,1-2.47,2.9A11.54,11.54,0,0,1,220,33.32a17.77,17.77,0,0,1-4.87.64,15.26,15.26,0,0,1-5.73-1,12.32,12.32,0,0,1-4.15-2.78l3.4-3.1A8.46,8.46,0,0,0,211.53,29a9.53,9.53,0,0,0,3.63.69,8.14,8.14,0,0,0,2.18-.28,5.4,5.4,0,0,0,1.82-.88A4.07,4.07,0,0,0,220.4,27a5.2,5.2,0,0,0,.46-2.26V22.91a5.92,5.92,0,0,1-2.73,2.37A9.18,9.18,0,0,1,214.29,26.08Zm2.18-4.52a4.84,4.84,0,0,0,2.61-.73A5.3,5.3,0,0,0,220.86,19V15a5.27,5.27,0,0,0-1.94-2.37,4.91,4.91,0,0,0-2.77-.88,4.35,4.35,0,0,0-1.88.41,4.83,4.83,0,0,0-1.46,1.11,5.14,5.14,0,0,0-.95,1.6,5.46,5.46,0,0,0-.33,1.87,4.78,4.78,0,0,0,.37,1.91,4.46,4.46,0,0,0,1,1.51,4.9,4.9,0,0,0,1.56,1A5.22,5.22,0,0,0,216.47,21.56Z"/><path class="cls-1" d="M239.67,26.37a9.71,9.71,0,0,1-9.11-5.95,9.39,9.39,0,0,1-.73-3.67,10.17,10.17,0,0,1,.69-3.73,9.53,9.53,0,0,1,1.94-3.08,9.15,9.15,0,0,1,6.74-2.85,8.44,8.44,0,0,1,4.45,1.18,9.71,9.71,0,0,1,3.1,2.85V0h3.48V22.16a1,1,0,0,0,1.11,1.14V26l-.89.11-.66,0a2.77,2.77,0,0,1-1.8-.62,1.83,1.83,0,0,1-.77-1.44V22.52A8.23,8.23,0,0,1,244,25.35,9.41,9.41,0,0,1,239.67,26.37Zm.83-2.71a6.53,6.53,0,0,0,2-.32,7.85,7.85,0,0,0,1.9-.89,6.88,6.88,0,0,0,1.54-1.34,3.85,3.85,0,0,0,.85-1.62V14.15a5.76,5.76,0,0,0-1.07-1.7,8.5,8.5,0,0,0-1.6-1.39,7.76,7.76,0,0,0-1.9-.92,6.08,6.08,0,0,0-2-.34,6.34,6.34,0,0,0-2.79.59A6.67,6.67,0,0,0,235.27,12a7,7,0,0,0-1.37,2.25,7.4,7.4,0,0,0-.47,2.58,6.57,6.57,0,0,0,.55,2.66,7,7,0,0,0,1.5,2.19,7.34,7.34,0,0,0,2.24,1.48A6.9,6.9,0,0,0,240.5,23.66Z"/><path class="cls-1" d="M255.05,3.92V0h3.48V3.92Zm0,22.09V7.41h3.48V26Z"/><path class="cls-1" d="M274.07,10.16a9.6,9.6,0,0,0-4.61,1.21,6.36,6.36,0,0,0-2.83,3.17V26h-3.48V7.41h3.25v4.31a8.94,8.94,0,0,1,2.8-3.11,7.35,7.35,0,0,1,3.72-1.34h.67a3.43,3.43,0,0,1,.48,0Z"/><path class="cls-1" d="M285.17,26.37a11.54,11.54,0,0,1-4.27-.77,10.23,10.23,0,0,1-3.32-2.08,9.4,9.4,0,0,1-2.15-3.09,9,9,0,0,1-.77-3.72,9,9,0,0,1,.77-3.7,9.33,9.33,0,0,1,2.17-3.07,10.43,10.43,0,0,1,3.34-2.08,11.54,11.54,0,0,1,4.27-.77,11.17,11.17,0,0,1,4.25.78A10.15,10.15,0,0,1,292.72,10a9.16,9.16,0,0,1,2.08,3,9,9,0,0,1,.73,3.58c0,.26,0,.5,0,.71a2.61,2.61,0,0,1-.06.5H278.33a6.63,6.63,0,0,0,2.26,4.49,7.17,7.17,0,0,0,2.15,1.28,7.08,7.08,0,0,0,2.55.47,7.3,7.3,0,0,0,1.86-.24,8.37,8.37,0,0,0,1.7-.62,5.79,5.79,0,0,0,1.4-1,3.92,3.92,0,0,0,.93-1.28l3,.74a6.86,6.86,0,0,1-1.41,1.89,9.11,9.11,0,0,1-2,1.48,11.22,11.22,0,0,1-2.59,1A12.08,12.08,0,0,1,285.17,26.37Zm7.08-10.91a6.23,6.23,0,0,0-.73-2.44,6.67,6.67,0,0,0-1.54-1.9,7.15,7.15,0,0,0-2.16-1.23,7.79,7.79,0,0,0-5.22,0,6.86,6.86,0,0,0-2.15,1.25A6.31,6.31,0,0,0,279,13a6.21,6.21,0,0,0-.69,2.42Z"/><path class="cls-1" d="M297,16.68a9.28,9.28,0,0,1,.75-3.71,9.16,9.16,0,0,1,2.14-3.05,10.43,10.43,0,0,1,3.3-2.06,11.5,11.5,0,0,1,4.29-.77,10.82,10.82,0,0,1,5.31,1.23,8.34,8.34,0,0,1,3.38,3.3l-3.4,1a5.34,5.34,0,0,0-2.21-2.05,6.78,6.78,0,0,0-3.16-.73,6.93,6.93,0,0,0-2.69.52,6.24,6.24,0,0,0-2.17,1.44,6.83,6.83,0,0,0-2,4.92,6.84,6.84,0,0,0,.55,2.74,7.32,7.32,0,0,0,1.49,2.23,6.69,6.69,0,0,0,2.17,1.48,6.8,6.8,0,0,0,2.67.53,7.4,7.4,0,0,0,1.8-.23,7.28,7.28,0,0,0,1.62-.63,6.36,6.36,0,0,0,1.28-.9,3.1,3.1,0,0,0,.79-1.13l3.4.93A6.52,6.52,0,0,1,315,23.59a8.05,8.05,0,0,1-2,1.46,12,12,0,0,1-5.49,1.32,11.12,11.12,0,0,1-4.27-.79,10.34,10.34,0,0,1-3.32-2.1,9.38,9.38,0,0,1-2.16-3.08A9.28,9.28,0,0,1,297,16.68Z"/><path class="cls-1" d="M330,25.08c-.21.1-.49.21-.83.34s-.73.27-1.17.4a12.47,12.47,0,0,1-1.42.32,10.38,10.38,0,0,1-1.6.12,5.65,5.65,0,0,1-3.28-.94,3.32,3.32,0,0,1-1.39-2.94V9.87h-2.8V7.41h2.8V1.21h3.48v6.2h4.63V9.87h-4.63V21.41a1.92,1.92,0,0,0,.75,1.5,2.73,2.73,0,0,0,1.59.46,5.56,5.56,0,0,0,1.87-.3,8.13,8.13,0,0,0,1.17-.48Z"/></g></g></svg>