<svg xmlns="http://www.w3.org/2000/svg" viewBox="0 0 171 92.34"><defs><style>.cls-1{fill:none;stroke:#fff;stroke-linecap:round;stroke-linejoin:round;stroke-width:2px;}.cls-2{fill:#fff;}</style></defs><title>sign-up</title><g id="Layer_2" data-name="Layer 2"><g id="Layer_2-2" data-name="Layer 2"><path class="cls-1" d="M18.66,15.65H170a0,0,0,0,1,0,0V43a17.66,17.66,0,0,1-17.66,17.66H18.66A17.66,17.66,0,0,1,1,43V33.31A17.66,17.66,0,0,1,18.66,15.65Z"/><path class="cls-2" d="M164.08,75.77l-20.61.87a1.22,1.22,0,0,0-.8.37L128.48,92a1.18,1.18,0,0,1-2-.79l-.8-50.05a1.17,1.17,0,0,1,2-.89l37.2,33.49A1.17,1.17,0,0,1,164.08,75.77Z"/><line class="cls-1" x1="113.95" y1="34.16" x2="92.56" y2="21.1"/><line class="cls-1" x1="120.01" y1="28.19" x2="108.01" y2="6.19"/><line class="cls-1" x1="128.24" y1="26.05" x2="128.84" y2="1"/></g></g></svg>