<svg xmlns="http://www.w3.org/2000/svg" viewBox="0 0 221.5 136.58"><defs><style>.cls-1{fill:none;stroke:#fff;stroke-linecap:round;stroke-linejoin:round;stroke-width:2px;}</style></defs><title>unlimited</title><g id="Layer_2" data-name="Layer 2"><g id="Layer_2-2" data-name="Layer 2"><rect class="cls-1" x="1" y="1" width="61.5" height="45.69" rx="4.72" ry="4.72"/><rect class="cls-1" x="12.17" y="6.19" width="67.89" height="50.38" rx="4.72" ry="4.72"/><rect class="cls-1" x="23.33" y="11.37" width="74.28" height="55.07" rx="4.72" ry="4.72"/><rect class="cls-1" x="34.5" y="16.56" width="80.67" height="59.76" rx="4.72" ry="4.72"/><rect class="cls-1" x="45.67" y="21.75" width="87.06" height="64.45" rx="4.72" ry="4.72"/><rect class="cls-1" x="56.83" y="26.94" width="93.44" height="69.14" rx="4.72" ry="4.72"/><rect class="cls-1" x="68" y="32.12" width="99.83" height="73.83" rx="4.72" ry="4.72"/><rect class="cls-1" x="79.17" y="37.31" width="106.22" height="78.52" rx="4.72" ry="4.72"/><rect class="cls-1" x="90.33" y="42.5" width="112.61" height="83.21" rx="4.72" ry="4.72"/><rect class="cls-1" x="101.5" y="47.69" width="119" height="87.9" rx="4.72" ry="4.72"/></g></g></svg>